<mxfile host="app.diagrams.net" modified="2023-12-04T17:12:33.273Z" agent="Mozilla/5.0 (Windows NT 10.0; Win64; x64) AppleWebKit/537.36 (KHTML, like Gecko) Chrome/119.0.0.0 Safari/537.36" etag="VbcafFlfg2qNaYB69gD-" version="22.1.5" type="device">
  <diagram name="Page-1" id="2YBvvXClWsGukQMizWep">
    <mxGraphModel dx="2840" dy="1680" grid="1" gridSize="10" guides="1" tooltips="1" connect="1" arrows="1" fold="1" page="1" pageScale="1" pageWidth="850" pageHeight="1100" math="0" shadow="0">
      <root>
        <mxCell id="0" />
        <mxCell id="1" parent="0" />
        <mxCell id="g_tPpGAOfdIyaXea1qWz-1" value="&lt;font color=&quot;#7ea6e0&quot;&gt;CLIENT 1&lt;/font&gt;" style="shape=umlLifeline;perimeter=lifelinePerimeter;whiteSpace=wrap;html=1;container=0;dropTarget=0;collapsible=0;recursiveResize=0;outlineConnect=0;portConstraint=eastwest;newEdgeStyle={&quot;edgeStyle&quot;:&quot;elbowEdgeStyle&quot;,&quot;elbow&quot;:&quot;vertical&quot;,&quot;curved&quot;:0,&quot;rounded&quot;:0};" parent="1" vertex="1">
          <mxGeometry x="180" y="20" width="100" height="1080" as="geometry" />
        </mxCell>
        <mxCell id="g_tPpGAOfdIyaXea1qWz-2" value="" style="html=1;points=[];perimeter=orthogonalPerimeter;outlineConnect=0;targetShapes=umlLifeline;portConstraint=eastwest;newEdgeStyle={&quot;edgeStyle&quot;:&quot;elbowEdgeStyle&quot;,&quot;elbow&quot;:&quot;vertical&quot;,&quot;curved&quot;:0,&quot;rounded&quot;:0};" parent="g_tPpGAOfdIyaXea1qWz-1" vertex="1">
          <mxGeometry x="45" y="60" width="10" height="1010" as="geometry" />
        </mxCell>
        <mxCell id="g_tPpGAOfdIyaXea1qWz-3" value="&lt;font color=&quot;#ea6b66&quot;&gt;SERVER&lt;/font&gt;" style="shape=umlLifeline;perimeter=lifelinePerimeter;whiteSpace=wrap;html=1;container=0;dropTarget=0;collapsible=0;recursiveResize=0;outlineConnect=0;portConstraint=eastwest;newEdgeStyle={&quot;edgeStyle&quot;:&quot;elbowEdgeStyle&quot;,&quot;elbow&quot;:&quot;vertical&quot;,&quot;curved&quot;:0,&quot;rounded&quot;:0};" parent="1" vertex="1">
          <mxGeometry x="400" y="20" width="100" height="1080" as="geometry" />
        </mxCell>
        <mxCell id="g_tPpGAOfdIyaXea1qWz-4" value="" style="html=1;points=[];perimeter=orthogonalPerimeter;outlineConnect=0;targetShapes=umlLifeline;portConstraint=eastwest;newEdgeStyle={&quot;edgeStyle&quot;:&quot;elbowEdgeStyle&quot;,&quot;elbow&quot;:&quot;vertical&quot;,&quot;curved&quot;:0,&quot;rounded&quot;:0};" parent="g_tPpGAOfdIyaXea1qWz-3" vertex="1">
          <mxGeometry x="45" y="60" width="10" height="1010" as="geometry" />
        </mxCell>
        <mxCell id="wCH_qxUYtUUm3uJvWn0f-51" value="Main window" style="shape=process;whiteSpace=wrap;html=1;backgroundOutline=1;fillColor=#e1d5e7;strokeColor=#9673a6;" parent="1" vertex="1">
          <mxGeometry x="170" y="90" width="120" height="20" as="geometry" />
        </mxCell>
        <mxCell id="gF4oHyYY3A7loRQSlF0s-7" value="&lt;font color=&quot;#7ea6e0&quot;&gt;CLIENT 2&lt;/font&gt;" style="shape=umlLifeline;perimeter=lifelinePerimeter;whiteSpace=wrap;html=1;container=0;dropTarget=0;collapsible=0;recursiveResize=0;outlineConnect=0;portConstraint=eastwest;newEdgeStyle={&quot;edgeStyle&quot;:&quot;elbowEdgeStyle&quot;,&quot;elbow&quot;:&quot;vertical&quot;,&quot;curved&quot;:0,&quot;rounded&quot;:0};" vertex="1" parent="1">
          <mxGeometry x="610" y="20" width="100" height="1080" as="geometry" />
        </mxCell>
        <mxCell id="gF4oHyYY3A7loRQSlF0s-8" value="" style="html=1;points=[];perimeter=orthogonalPerimeter;outlineConnect=0;targetShapes=umlLifeline;portConstraint=eastwest;newEdgeStyle={&quot;edgeStyle&quot;:&quot;elbowEdgeStyle&quot;,&quot;elbow&quot;:&quot;vertical&quot;,&quot;curved&quot;:0,&quot;rounded&quot;:0};" vertex="1" parent="gF4oHyYY3A7loRQSlF0s-7">
          <mxGeometry x="45" y="60" width="10" height="1010" as="geometry" />
        </mxCell>
        <mxCell id="gF4oHyYY3A7loRQSlF0s-9" value="Main window" style="shape=process;whiteSpace=wrap;html=1;backgroundOutline=1;fillColor=#e1d5e7;strokeColor=#9673a6;" vertex="1" parent="1">
          <mxGeometry x="600" y="90" width="120" height="20" as="geometry" />
        </mxCell>
        <mxCell id="gF4oHyYY3A7loRQSlF0s-34" value="" style="endArrow=none;dashed=1;html=1;dashPattern=1 3;strokeWidth=1;rounded=0;fillColor=#dae8fc;strokeColor=#6c8ebf;" edge="1" parent="1">
          <mxGeometry width="50" height="50" relative="1" as="geometry">
            <mxPoint x="190" y="350" as="sourcePoint" />
            <mxPoint x="225" y="349.75000000000006" as="targetPoint" />
          </mxGeometry>
        </mxCell>
        <mxCell id="gF4oHyYY3A7loRQSlF0s-35" value="&lt;font color=&quot;#7ea6e0&quot;&gt;Receives TCP packet&lt;/font&gt;" style="verticalAlign=bottom;html=1;endArrow=none;edgeStyle=none;labelBackgroundColor=none;fontSize=10;strokeWidth=2;rounded=0;fillColor=#dae8fc;strokeColor=#6c8ebf;" edge="1" parent="1">
          <mxGeometry relative="1" as="geometry">
            <mxPoint x="50" y="349.76" as="sourcePoint" />
            <mxPoint x="210" y="349.76" as="targetPoint" />
          </mxGeometry>
        </mxCell>
        <mxCell id="gF4oHyYY3A7loRQSlF0s-36" value="&amp;lt;Turn&amp;gt;Yours&amp;lt;/Turn&amp;gt;" style="resizable=0;html=1;align=left;verticalAlign=top;labelBackgroundColor=none;fontSize=10;" connectable="0" vertex="1" parent="gF4oHyYY3A7loRQSlF0s-35">
          <mxGeometry x="-1" relative="1" as="geometry">
            <mxPoint x="30" y="1" as="offset" />
          </mxGeometry>
        </mxCell>
        <mxCell id="gF4oHyYY3A7loRQSlF0s-37" value="" style="endArrow=classic;startArrow=classic;html=1;rounded=0;fillColor=#f8cecc;strokeColor=#b85450;" edge="1" parent="1">
          <mxGeometry width="50" height="50" relative="1" as="geometry">
            <mxPoint x="235" y="349.76" as="sourcePoint" />
            <mxPoint x="655" y="349.76" as="targetPoint" />
          </mxGeometry>
        </mxCell>
        <mxCell id="gF4oHyYY3A7loRQSlF0s-38" value="&lt;font style=&quot;font-size: 10px;&quot;&gt;Notifies whose turn it is&lt;/font&gt;" style="rounded=0;whiteSpace=wrap;html=1;" vertex="1" parent="1">
          <mxGeometry x="390" y="340" width="120" height="20" as="geometry" />
        </mxCell>
        <mxCell id="gF4oHyYY3A7loRQSlF0s-52" value="" style="endArrow=none;dashed=1;html=1;dashPattern=1 3;strokeWidth=2;rounded=0;fillColor=#ffe6cc;strokeColor=#d79b00;" edge="1" parent="1">
          <mxGeometry width="50" height="50" relative="1" as="geometry">
            <mxPoint x="20" y="140" as="sourcePoint" />
            <mxPoint x="700" y="140" as="targetPoint" />
          </mxGeometry>
        </mxCell>
        <mxCell id="gF4oHyYY3A7loRQSlF0s-48" value="&lt;font color=&quot;#ff8000&quot; face=&quot;Verdana&quot;&gt;&lt;b style=&quot;&quot;&gt;All clients recieve TCP packet:&lt;/b&gt;&lt;/font&gt;" style="verticalAlign=bottom;html=1;endArrow=none;edgeStyle=none;labelBackgroundColor=none;fontSize=10;strokeWidth=2;rounded=0;fillColor=#ffe6cc;strokeColor=#d79b00;" edge="1" parent="1">
          <mxGeometry relative="1" as="geometry">
            <mxPoint x="30" y="139.82999999999996" as="sourcePoint" />
            <mxPoint x="190" y="139.82999999999996" as="targetPoint" />
            <mxPoint as="offset" />
          </mxGeometry>
        </mxCell>
        <mxCell id="gF4oHyYY3A7loRQSlF0s-49" value="&amp;lt;Carte&amp;gt;&lt;br&gt;&lt;span style=&quot;white-space: pre;&quot;&gt;&#x9;&lt;/span&gt;&amp;lt;Carta&amp;gt;[...]&amp;lt;/Carta&amp;gt;&lt;br&gt;&lt;span style=&quot;white-space: pre;&quot;&gt;&#x9;&lt;/span&gt;&amp;lt;Carta&amp;gt;[...]&amp;lt;/Carta&amp;gt;&lt;br&gt;&lt;span style=&quot;white-space: pre;&quot;&gt;&#x9;&lt;/span&gt;&amp;lt;Carta&amp;gt;[...]&amp;lt;/Carta&amp;gt;&lt;br&gt;&amp;lt;/Carte&amp;gt;" style="resizable=0;html=1;align=left;verticalAlign=top;labelBackgroundColor=none;fontSize=10;" connectable="0" vertex="1" parent="gF4oHyYY3A7loRQSlF0s-48">
          <mxGeometry x="-1" relative="1" as="geometry">
            <mxPoint x="30" y="1" as="offset" />
          </mxGeometry>
        </mxCell>
        <mxCell id="gF4oHyYY3A7loRQSlF0s-15" value="" style="endArrow=classic;startArrow=classic;html=1;rounded=0;fillColor=#f8cecc;strokeColor=#b85450;" edge="1" parent="1">
          <mxGeometry width="50" height="50" relative="1" as="geometry">
            <mxPoint x="235" y="139.76" as="sourcePoint" />
            <mxPoint x="655" y="139.76" as="targetPoint" />
          </mxGeometry>
        </mxCell>
        <mxCell id="gF4oHyYY3A7loRQSlF0s-11" value="&lt;font style=&quot;font-size: 9px;&quot;&gt;-Distributes 3 cards to each player&lt;br&gt;-Sends briscola&lt;br&gt;&lt;/font&gt;" style="rounded=0;whiteSpace=wrap;html=1;" vertex="1" parent="1">
          <mxGeometry x="380" y="120" width="140" height="40" as="geometry" />
        </mxCell>
        <mxCell id="gF4oHyYY3A7loRQSlF0s-54" value="" style="endArrow=none;dashed=1;html=1;dashPattern=1 3;strokeWidth=1;rounded=0;fillColor=#dae8fc;strokeColor=#6c8ebf;" edge="1" parent="1">
          <mxGeometry width="50" height="50" relative="1" as="geometry">
            <mxPoint x="665.0000000000002" y="349.9999999999999" as="sourcePoint" />
            <mxPoint x="690" y="350" as="targetPoint" />
          </mxGeometry>
        </mxCell>
        <mxCell id="gF4oHyYY3A7loRQSlF0s-55" value="&lt;font color=&quot;#7ea6e0&quot;&gt;Receives TCP packet&lt;/font&gt;" style="verticalAlign=bottom;html=1;endArrow=none;edgeStyle=none;labelBackgroundColor=none;fontSize=10;strokeWidth=2;rounded=0;fillColor=#dae8fc;strokeColor=#6c8ebf;" edge="1" parent="1">
          <mxGeometry relative="1" as="geometry">
            <mxPoint x="680" y="349.79999999999995" as="sourcePoint" />
            <mxPoint x="840" y="349.79999999999995" as="targetPoint" />
          </mxGeometry>
        </mxCell>
        <mxCell id="gF4oHyYY3A7loRQSlF0s-56" value="&amp;lt;Turn&amp;gt;Client 1&amp;lt;/Turn&amp;gt;" style="resizable=0;html=1;align=left;verticalAlign=top;labelBackgroundColor=none;fontSize=10;" connectable="0" vertex="1" parent="gF4oHyYY3A7loRQSlF0s-55">
          <mxGeometry x="-1" relative="1" as="geometry">
            <mxPoint x="30" y="1" as="offset" />
          </mxGeometry>
        </mxCell>
        <mxCell id="gF4oHyYY3A7loRQSlF0s-66" value="" style="endArrow=none;dashed=1;html=1;dashPattern=1 3;strokeWidth=2;rounded=0;" edge="1" parent="1">
          <mxGeometry width="50" height="50" relative="1" as="geometry">
            <mxPoint x="160" y="269.7099999999999" as="sourcePoint" />
            <mxPoint x="227.5" y="270.13" as="targetPoint" />
          </mxGeometry>
        </mxCell>
        <mxCell id="gF4oHyYY3A7loRQSlF0s-70" value="Plays card" style="endArrow=classic;html=1;rounded=0;fillColor=#dae8fc;strokeColor=#6c8ebf;" edge="1" parent="1">
          <mxGeometry width="50" height="50" relative="1" as="geometry">
            <mxPoint x="235" y="430" as="sourcePoint" />
            <mxPoint x="445.0000000000002" y="430" as="targetPoint" />
          </mxGeometry>
        </mxCell>
        <mxCell id="gF4oHyYY3A7loRQSlF0s-71" value="" style="endArrow=none;dashed=1;html=1;dashPattern=1 3;strokeWidth=1;rounded=0;fillColor=#dae8fc;strokeColor=#6c8ebf;" edge="1" parent="1">
          <mxGeometry width="50" height="50" relative="1" as="geometry">
            <mxPoint x="190" y="430.25" as="sourcePoint" />
            <mxPoint x="225" y="430.00000000000006" as="targetPoint" />
          </mxGeometry>
        </mxCell>
        <mxCell id="gF4oHyYY3A7loRQSlF0s-72" value="&lt;font color=&quot;#7ea6e0&quot;&gt;Sends TCP packet&lt;/font&gt;" style="verticalAlign=bottom;html=1;endArrow=none;edgeStyle=none;labelBackgroundColor=none;fontSize=10;strokeWidth=2;rounded=0;fillColor=#dae8fc;strokeColor=#6c8ebf;" edge="1" parent="1">
          <mxGeometry relative="1" as="geometry">
            <mxPoint x="50" y="430.01" as="sourcePoint" />
            <mxPoint x="210" y="430.01" as="targetPoint" />
          </mxGeometry>
        </mxCell>
        <mxCell id="gF4oHyYY3A7loRQSlF0s-73" value="&amp;lt;Carte&amp;gt;&amp;lt;Carta&amp;gt;[...]&amp;lt;/Carta&amp;gt;&amp;lt;/Carte&amp;gt;" style="resizable=0;html=1;align=left;verticalAlign=top;labelBackgroundColor=none;fontSize=10;" connectable="0" vertex="1" parent="gF4oHyYY3A7loRQSlF0s-72">
          <mxGeometry x="-1" relative="1" as="geometry">
            <mxPoint y="1" as="offset" />
          </mxGeometry>
        </mxCell>
        <mxCell id="gF4oHyYY3A7loRQSlF0s-83" value="" style="endArrow=none;dashed=1;html=1;dashPattern=1 3;strokeWidth=2;rounded=0;fillColor=#f8cecc;strokeColor=#b85450;" edge="1" parent="1" source="gF4oHyYY3A7loRQSlF0s-75">
          <mxGeometry width="50" height="50" relative="1" as="geometry">
            <mxPoint x="10" y="519.8" as="sourcePoint" />
            <mxPoint x="700" y="519.8" as="targetPoint" />
          </mxGeometry>
        </mxCell>
        <mxCell id="gF4oHyYY3A7loRQSlF0s-74" value="" style="endArrow=classic;startArrow=classic;html=1;rounded=0;fillColor=#f8cecc;strokeColor=#b85450;" edge="1" parent="1">
          <mxGeometry width="50" height="50" relative="1" as="geometry">
            <mxPoint x="235" y="519.8" as="sourcePoint" />
            <mxPoint x="655" y="519.8" as="targetPoint" />
          </mxGeometry>
        </mxCell>
        <mxCell id="gF4oHyYY3A7loRQSlF0s-87" value="" style="endArrow=none;dashed=1;html=1;dashPattern=1 3;strokeWidth=2;rounded=0;fillColor=#ffe6cc;strokeColor=#d79b00;" edge="1" parent="1" target="gF4oHyYY3A7loRQSlF0s-75">
          <mxGeometry width="50" height="50" relative="1" as="geometry">
            <mxPoint x="20" y="520" as="sourcePoint" />
            <mxPoint x="700" y="519.8" as="targetPoint" />
          </mxGeometry>
        </mxCell>
        <mxCell id="gF4oHyYY3A7loRQSlF0s-81" value="&lt;font color=&quot;#ff8000&quot; face=&quot;Verdana&quot;&gt;&lt;b style=&quot;&quot;&gt;All clients recieve TCP packet:&lt;/b&gt;&lt;/font&gt;" style="verticalAlign=bottom;html=1;endArrow=none;edgeStyle=none;labelBackgroundColor=none;fontSize=10;strokeWidth=2;rounded=0;fillColor=#ffe6cc;strokeColor=#d79b00;" edge="1" parent="1">
          <mxGeometry relative="1" as="geometry">
            <mxPoint x="30" y="519.63" as="sourcePoint" />
            <mxPoint x="190" y="519.63" as="targetPoint" />
            <mxPoint as="offset" />
          </mxGeometry>
        </mxCell>
        <mxCell id="gF4oHyYY3A7loRQSlF0s-82" value="&amp;nbsp;&amp;lt;Carte&amp;gt;&amp;lt;Carta&amp;gt;[...]&amp;lt;/Carta&amp;gt;&amp;lt;/Carte&amp;gt;" style="resizable=0;html=1;align=left;verticalAlign=top;labelBackgroundColor=none;fontSize=10;" connectable="0" vertex="1" parent="gF4oHyYY3A7loRQSlF0s-81">
          <mxGeometry x="-1" relative="1" as="geometry">
            <mxPoint x="-10" as="offset" />
          </mxGeometry>
        </mxCell>
        <mxCell id="gF4oHyYY3A7loRQSlF0s-84" value="Clients will render their cards and briscola on GUI" style="rounded=1;whiteSpace=wrap;html=1;fillColor=#d5e8d4;strokeColor=#82b366;" vertex="1" parent="1">
          <mxGeometry x="30" y="250" width="160" height="40" as="geometry" />
        </mxCell>
        <mxCell id="gF4oHyYY3A7loRQSlF0s-85" value="" style="endArrow=none;dashed=1;html=1;dashPattern=1 3;strokeWidth=2;rounded=0;" edge="1" parent="1">
          <mxGeometry width="50" height="50" relative="1" as="geometry">
            <mxPoint x="160" y="589.7099999999999" as="sourcePoint" />
            <mxPoint x="227.5" y="590.13" as="targetPoint" />
          </mxGeometry>
        </mxCell>
        <mxCell id="gF4oHyYY3A7loRQSlF0s-86" value="Clients will render the played&lt;br&gt;card on the field" style="rounded=1;whiteSpace=wrap;html=1;fillColor=#d5e8d4;strokeColor=#82b366;" vertex="1" parent="1">
          <mxGeometry x="30" y="570" width="160" height="40" as="geometry" />
        </mxCell>
        <mxCell id="gF4oHyYY3A7loRQSlF0s-75" value="&lt;font style=&quot;font-size: 10px;&quot;&gt;Notifies played card to everyone&lt;/font&gt;" style="rounded=0;whiteSpace=wrap;html=1;" vertex="1" parent="1">
          <mxGeometry x="370" y="510" width="160" height="20" as="geometry" />
        </mxCell>
        <mxCell id="gF4oHyYY3A7loRQSlF0s-89" value="" style="rounded=0;whiteSpace=wrap;html=1;12;fillColor=none;strokeColor=#A86E18;strokeWidth=3;opacity=60;dashed=1;dashPattern=1 1;" vertex="1" parent="1">
          <mxGeometry x="10" y="320" width="830" height="600" as="geometry" />
        </mxCell>
        <mxCell id="gF4oHyYY3A7loRQSlF0s-90" value="Plays card" style="endArrow=classic;html=1;rounded=0;fillColor=#dae8fc;strokeColor=#6c8ebf;" edge="1" parent="1">
          <mxGeometry width="50" height="50" relative="1" as="geometry">
            <mxPoint x="650" y="640" as="sourcePoint" />
            <mxPoint x="460" y="640" as="targetPoint" />
          </mxGeometry>
        </mxCell>
        <mxCell id="gF4oHyYY3A7loRQSlF0s-94" value="" style="endArrow=none;dashed=1;html=1;dashPattern=1 3;strokeWidth=2;rounded=0;fillColor=#ffe6cc;strokeColor=#d79b00;" edge="1" parent="1" source="gF4oHyYY3A7loRQSlF0s-101">
          <mxGeometry width="50" height="50" relative="1" as="geometry">
            <mxPoint x="10" y="709.8" as="sourcePoint" />
            <mxPoint x="700" y="709.8" as="targetPoint" />
          </mxGeometry>
        </mxCell>
        <mxCell id="gF4oHyYY3A7loRQSlF0s-95" value="" style="endArrow=classic;startArrow=classic;html=1;rounded=0;fillColor=#f8cecc;strokeColor=#b85450;" edge="1" parent="1">
          <mxGeometry width="50" height="50" relative="1" as="geometry">
            <mxPoint x="235" y="709.8" as="sourcePoint" />
            <mxPoint x="655" y="709.8" as="targetPoint" />
          </mxGeometry>
        </mxCell>
        <mxCell id="gF4oHyYY3A7loRQSlF0s-96" value="" style="endArrow=none;dashed=1;html=1;dashPattern=1 3;strokeWidth=2;rounded=0;fillColor=#ffe6cc;strokeColor=#d79b00;" edge="1" parent="1" target="gF4oHyYY3A7loRQSlF0s-101">
          <mxGeometry width="50" height="50" relative="1" as="geometry">
            <mxPoint x="20" y="710" as="sourcePoint" />
            <mxPoint x="700" y="709.8" as="targetPoint" />
          </mxGeometry>
        </mxCell>
        <mxCell id="gF4oHyYY3A7loRQSlF0s-97" value="&lt;font color=&quot;#ff8000&quot; face=&quot;Verdana&quot;&gt;&lt;b style=&quot;&quot;&gt;All clients recieve TCP packet:&lt;/b&gt;&lt;/font&gt;" style="verticalAlign=bottom;html=1;endArrow=none;edgeStyle=none;labelBackgroundColor=none;fontSize=10;strokeWidth=2;rounded=0;fillColor=#ffe6cc;strokeColor=#d79b00;" edge="1" parent="1">
          <mxGeometry relative="1" as="geometry">
            <mxPoint x="30" y="709.63" as="sourcePoint" />
            <mxPoint x="190" y="709.63" as="targetPoint" />
            <mxPoint as="offset" />
          </mxGeometry>
        </mxCell>
        <mxCell id="gF4oHyYY3A7loRQSlF0s-98" value="&amp;lt;Carte&amp;gt;&#x9;&amp;lt;Carta&amp;gt;[...]&amp;lt;/Carta&amp;gt;&amp;lt;/Carte&amp;gt;" style="resizable=0;html=1;align=left;verticalAlign=top;labelBackgroundColor=none;fontSize=10;" connectable="0" vertex="1" parent="gF4oHyYY3A7loRQSlF0s-97">
          <mxGeometry x="-1" relative="1" as="geometry">
            <mxPoint x="-10" as="offset" />
          </mxGeometry>
        </mxCell>
        <mxCell id="gF4oHyYY3A7loRQSlF0s-99" value="" style="endArrow=none;dashed=1;html=1;dashPattern=1 3;strokeWidth=2;rounded=0;" edge="1" parent="1">
          <mxGeometry width="50" height="50" relative="1" as="geometry">
            <mxPoint x="160" y="779.7099999999999" as="sourcePoint" />
            <mxPoint x="227.5" y="780.13" as="targetPoint" />
          </mxGeometry>
        </mxCell>
        <mxCell id="gF4oHyYY3A7loRQSlF0s-100" value="Clients will render the played&lt;br&gt;card on the field" style="rounded=1;whiteSpace=wrap;html=1;fillColor=#d5e8d4;strokeColor=#82b366;" vertex="1" parent="1">
          <mxGeometry x="30" y="760" width="160" height="40" as="geometry" />
        </mxCell>
        <mxCell id="gF4oHyYY3A7loRQSlF0s-101" value="&lt;font style=&quot;font-size: 10px;&quot;&gt;Notifies played card to everyone&lt;/font&gt;" style="rounded=0;whiteSpace=wrap;html=1;" vertex="1" parent="1">
          <mxGeometry x="370" y="700" width="160" height="20" as="geometry" />
        </mxCell>
        <mxCell id="gF4oHyYY3A7loRQSlF0s-104" value="" style="endArrow=none;dashed=1;html=1;dashPattern=1 3;strokeWidth=2;rounded=0;fillColor=#ffe6cc;strokeColor=#d79b00;" edge="1" parent="1" source="gF4oHyYY3A7loRQSlF0s-109">
          <mxGeometry width="50" height="50" relative="1" as="geometry">
            <mxPoint x="10" y="879.8" as="sourcePoint" />
            <mxPoint x="700" y="879.8" as="targetPoint" />
          </mxGeometry>
        </mxCell>
        <mxCell id="gF4oHyYY3A7loRQSlF0s-105" value="" style="endArrow=classic;startArrow=classic;html=1;rounded=0;fillColor=#f8cecc;strokeColor=#b85450;" edge="1" parent="1">
          <mxGeometry width="50" height="50" relative="1" as="geometry">
            <mxPoint x="235" y="879.8" as="sourcePoint" />
            <mxPoint x="655" y="879.8" as="targetPoint" />
          </mxGeometry>
        </mxCell>
        <mxCell id="gF4oHyYY3A7loRQSlF0s-106" value="" style="endArrow=none;dashed=1;html=1;dashPattern=1 3;strokeWidth=2;rounded=0;fillColor=#ffe6cc;strokeColor=#d79b00;" edge="1" parent="1" target="gF4oHyYY3A7loRQSlF0s-109">
          <mxGeometry width="50" height="50" relative="1" as="geometry">
            <mxPoint x="20" y="880" as="sourcePoint" />
            <mxPoint x="700" y="879.8" as="targetPoint" />
          </mxGeometry>
        </mxCell>
        <mxCell id="gF4oHyYY3A7loRQSlF0s-107" value="&lt;font color=&quot;#ff8000&quot; face=&quot;Verdana&quot;&gt;&lt;b style=&quot;&quot;&gt;All clients recieve TCP packet:&lt;/b&gt;&lt;/font&gt;" style="verticalAlign=bottom;html=1;endArrow=none;edgeStyle=none;labelBackgroundColor=none;fontSize=10;strokeWidth=2;rounded=0;fillColor=#ffe6cc;strokeColor=#d79b00;" edge="1" parent="1">
          <mxGeometry relative="1" as="geometry">
            <mxPoint x="30" y="879.63" as="sourcePoint" />
            <mxPoint x="190" y="879.63" as="targetPoint" />
            <mxPoint as="offset" />
          </mxGeometry>
        </mxCell>
        <mxCell id="gF4oHyYY3A7loRQSlF0s-108" value="&amp;nbsp;&lt;span style=&quot;white-space: pre;&quot;&gt;&#x9;&lt;/span&gt;&amp;nbsp; &amp;nbsp; &amp;nbsp; &amp;lt;Score&amp;gt;[...]&amp;lt;/Score&amp;gt;" style="resizable=0;html=1;align=left;verticalAlign=top;labelBackgroundColor=none;fontSize=10;" connectable="0" vertex="1" parent="gF4oHyYY3A7loRQSlF0s-107">
          <mxGeometry x="-1" relative="1" as="geometry">
            <mxPoint x="-10" as="offset" />
          </mxGeometry>
        </mxCell>
        <mxCell id="gF4oHyYY3A7loRQSlF0s-109" value="&lt;span style=&quot;font-size: 10px;&quot;&gt;Notifies each player his current score&lt;/span&gt;" style="rounded=0;whiteSpace=wrap;html=1;" vertex="1" parent="1">
          <mxGeometry x="362.5" y="870" width="175" height="20" as="geometry" />
        </mxCell>
        <mxCell id="gF4oHyYY3A7loRQSlF0s-110" value="&lt;span style=&quot;font-size: 10px;&quot;&gt;Calculates round winner&lt;/span&gt;" style="rounded=0;whiteSpace=wrap;html=1;" vertex="1" parent="1">
          <mxGeometry x="383.75" y="810" width="132.5" height="20" as="geometry" />
        </mxCell>
        <mxCell id="gF4oHyYY3A7loRQSlF0s-113" value="Round 1" style="rounded=1;whiteSpace=wrap;html=1;fillColor=#ffe6cc;strokeColor=#d79b00;" vertex="1" parent="1">
          <mxGeometry x="395" y="300" width="110" height="30" as="geometry" />
        </mxCell>
        <mxCell id="gF4oHyYY3A7loRQSlF0s-117" value="Keeps going until the deck is empty" style="rounded=1;whiteSpace=wrap;html=1;fillColor=#ffe6cc;strokeColor=#d79b00;" vertex="1" parent="1">
          <mxGeometry x="395" y="940" width="110" height="40" as="geometry" />
        </mxCell>
        <mxCell id="gF4oHyYY3A7loRQSlF0s-120" value="" style="endArrow=classic;startArrow=classic;html=1;rounded=0;fillColor=#f8cecc;strokeColor=#b85450;" edge="1" parent="1">
          <mxGeometry width="50" height="50" relative="1" as="geometry">
            <mxPoint x="240" y="1019.7" as="sourcePoint" />
            <mxPoint x="650" y="1020" as="targetPoint" />
          </mxGeometry>
        </mxCell>
        <mxCell id="gF4oHyYY3A7loRQSlF0s-127" value="" style="endArrow=none;dashed=1;html=1;dashPattern=1 3;strokeWidth=2;rounded=0;fillColor=#ffe6cc;strokeColor=#d79b00;" edge="1" parent="1">
          <mxGeometry width="50" height="50" relative="1" as="geometry">
            <mxPoint x="20" y="1019.5700000000002" as="sourcePoint" />
            <mxPoint x="700" y="1019.5700000000002" as="targetPoint" />
          </mxGeometry>
        </mxCell>
        <mxCell id="gF4oHyYY3A7loRQSlF0s-121" value="&lt;font style=&quot;&quot;&gt;&lt;font style=&quot;font-size: 10px;&quot;&gt;Notifies winner&lt;/font&gt;&lt;br&gt;&lt;/font&gt;" style="rounded=0;whiteSpace=wrap;html=1;" vertex="1" parent="1">
          <mxGeometry x="405" y="1010" width="90" height="20" as="geometry" />
        </mxCell>
        <mxCell id="gF4oHyYY3A7loRQSlF0s-125" value="&lt;font color=&quot;#ff8000&quot; face=&quot;Verdana&quot;&gt;&lt;b style=&quot;&quot;&gt;All clients recieve TCP packet:&lt;/b&gt;&lt;/font&gt;" style="verticalAlign=bottom;html=1;endArrow=none;edgeStyle=none;labelBackgroundColor=none;fontSize=10;strokeWidth=2;rounded=0;fillColor=#ffe6cc;strokeColor=#d79b00;" edge="1" parent="1">
          <mxGeometry relative="1" as="geometry">
            <mxPoint x="30" y="1019.5699999999999" as="sourcePoint" />
            <mxPoint x="190" y="1019.5699999999999" as="targetPoint" />
            <mxPoint as="offset" />
          </mxGeometry>
        </mxCell>
        <mxCell id="gF4oHyYY3A7loRQSlF0s-126" value="&amp;lt;Winner&amp;gt;[...]&amp;lt;/Winner&amp;gt;" style="resizable=0;html=1;align=left;verticalAlign=top;labelBackgroundColor=none;fontSize=10;" connectable="0" vertex="1" parent="gF4oHyYY3A7loRQSlF0s-125">
          <mxGeometry x="-1" relative="1" as="geometry">
            <mxPoint x="30" y="1" as="offset" />
          </mxGeometry>
        </mxCell>
        <mxCell id="gF4oHyYY3A7loRQSlF0s-129" value="&lt;font style=&quot;font-size: 19px;&quot;&gt;Game ends&lt;/font&gt;" style="rounded=1;whiteSpace=wrap;html=1;fillColor=#dae8fc;strokeColor=#6c8ebf;" vertex="1" parent="1">
          <mxGeometry x="220" y="1050" width="455" height="40" as="geometry" />
        </mxCell>
      </root>
    </mxGraphModel>
  </diagram>
</mxfile>
